<svg width="100%" viewBox="0 0 680 620" xmlns="http://www.w3.org/2000/svg">
<defs>
  <marker id="arrow" viewBox="0 0 10 10" refX="8" refY="5" markerWidth="6" markerHeight="6" orient="auto-start-reverse">
    <path d="M2 1L8 5L2 9" fill="none" stroke="context-stroke" stroke-width="1.5" stroke-linecap="round" stroke-linejoin="round"/>
  </marker>
  <style>
    text { font-family: -apple-system, BlinkMacSystemFont, 'Segoe UI', Arial, sans-serif; }
  </style>
</defs>

<!-- Background regions -->
<rect x="20" y="20" width="140" height="100" rx="12" fill="none" stroke="#6e40c9" stroke-width="1" stroke-dasharray="4 3" opacity="0.6"/>
<text x="90" y="14" text-anchor="middle" font-size="10" fill="#6e40c9" font-weight="500">GitHub</text>

<rect x="180" y="20" width="310" height="100" rx="12" fill="none" stroke="#2088FF" stroke-width="1" stroke-dasharray="4 3" opacity="0.6"/>
<text x="335" y="14" text-anchor="middle" font-size="10" fill="#2088FF" font-weight="500">GitHub Actions runner (temporary Ubuntu VM)</text>

<rect x="20" y="290" width="640" height="310" rx="12" fill="none" stroke="#0078D4" stroke-width="1" stroke-dasharray="4 3" opacity="0.5"/>
<text x="340" y="284" text-anchor="middle" font-size="10" fill="#0078D4" font-weight="500">Microsoft Azure — Switzerland North</text>

<!-- GitHub box -->
<rect x="30" y="40" width="120" height="64" rx="8" fill="none" stroke="#555" stroke-width="0.5"/>
<circle cx="68" cy="63" r="12" fill="#24292e"/>
<circle cx="68" cy="57" r="7" fill="#f0f6ff"/>
<ellipse cx="57" cy="68" rx="5" ry="3" fill="#24292e" transform="rotate(-30 57 68)"/>
<ellipse cx="79" cy="68" rx="5" ry="3" fill="#24292e" transform="rotate(30 79 68)"/>
<text x="90" y="59" font-size="11" font-weight="500" fill="#333">feature/</text>
<text x="90" y="74" font-size="11" font-weight="500" fill="#333">azure-lb-pipeline</text>
<text x="90" y="88" font-size="10" fill="#666">git push</text>

<line x1="150" y1="72" x2="190" y2="72" stroke="#6e40c9" stroke-width="1.5" marker-end="url(#arrow)" opacity="0.8"/>
<text x="168" y="67" text-anchor="middle" font-size="9" fill="#6e40c9">triggers</text>

<!-- Job 1 -->
<rect x="190" y="35" width="88" height="72" rx="8" fill="none" stroke="#339933" stroke-width="0.5" opacity="0.8"/>
<polygon points="231,47 245,55 245,71 231,79 217,71 217,55" fill="#339933"/>
<text x="231" y="67" text-anchor="middle" font-size="9" font-family="monospace" font-weight="700" fill="white">JS</text>
<text x="235" y="88" text-anchor="middle" font-size="10" font-weight="500" fill="#333">Job 1</text>
<text x="235" y="100" text-anchor="middle" font-size="9" fill="#666">npm test</text>

<line x1="278" y1="72" x2="300" y2="72" stroke="#2088FF" stroke-width="1.5" marker-end="url(#arrow)" opacity="0.8"/>
<text x="289" y="67" text-anchor="middle" font-size="9" fill="#2088FF">pass</text>

<!-- Job 2 -->
<rect x="300" y="35" width="88" height="72" rx="8" fill="none" stroke="#2496ED" stroke-width="0.5" opacity="0.8"/>
<rect x="316" y="55" width="30" height="14" rx="3" fill="#2496ED"/>
<rect x="320" y="49" width="7" height="7" rx="1" fill="#2496ED"/>
<rect x="329" y="49" width="7" height="7" rx="1" fill="#2496ED"/>
<rect x="338" y="49" width="7" height="7" rx="1" fill="#2496ED"/>
<ellipse cx="350" cy="66" rx="8" ry="6" fill="#2496ED"/>
<text x="344" y="88" text-anchor="middle" font-size="10" font-weight="500" fill="#333">Job 2</text>
<text x="344" y="100" text-anchor="middle" font-size="9" fill="#666">build image</text>

<line x1="388" y1="72" x2="408" y2="72" stroke="#2496ED" stroke-width="1.5" marker-end="url(#arrow)" opacity="0.8"/>
<text x="397" y="67" text-anchor="middle" font-size="9" fill="#2496ED">push</text>

<!-- ACR -->
<rect x="408" y="35" width="72" height="72" rx="8" fill="none" stroke="#0078D4" stroke-width="0.5" opacity="0.8"/>
<rect x="420" y="46" width="48" height="36" rx="4" fill="#0078D4" opacity="0.15"/>
<rect x="420" y="46" width="48" height="36" rx="4" fill="none" stroke="#0078D4" stroke-width="1.5"/>
<rect x="426" y="52" width="10" height="10" rx="1" fill="#0078D4"/>
<rect x="440" y="52" width="10" height="10" rx="1" fill="#0078D4" opacity="0.7"/>
<rect x="454" y="52" width="10" height="10" rx="1" fill="#0078D4" opacity="0.5"/>
<rect x="426" y="65" width="10" height="10" rx="1" fill="#0078D4" opacity="0.7"/>
<rect x="440" y="65" width="10" height="10" rx="1" fill="#0078D4"/>
<rect x="454" y="65" width="10" height="10" rx="1" fill="#0078D4" opacity="0.5"/>
<text x="444" y="96" text-anchor="middle" font-size="9" font-weight="500" fill="#333">ACR</text>
<text x="444" y="107" text-anchor="middle" font-size="9" fill="#666">azurecr.io</text>

<!-- Job 3 -->
<rect x="500" y="35" width="72" height="72" rx="8" fill="none" stroke="#2088FF" stroke-width="0.5" opacity="0.8"/>
<circle cx="520" cy="60" r="10" fill="none" stroke="#2088FF" stroke-width="1.5"/>
<circle cx="520" cy="60" r="4" fill="#2088FF" opacity="0.4"/>
<rect x="530" y="58" width="18" height="4" rx="1" fill="#2088FF"/>
<rect x="544" y="62" width="4" height="6" rx="1" fill="#2088FF"/>
<rect x="538" y="62" width="4" height="5" rx="1" fill="#2088FF"/>
<text x="536" y="90" text-anchor="middle" font-size="10" font-weight="500" fill="#333">Job 3</text>
<text x="536" y="101" text-anchor="middle" font-size="9" fill="#666">SSH deploy</text>

<line x1="480" y1="72" x2="498" y2="72" stroke="#0078D4" stroke-width="1.5" marker-end="url(#arrow)" opacity="0.8"/>
<text x="489" y="67" text-anchor="middle" font-size="9" fill="#0078D4">pull</text>

<!-- Deploy arrows down -->
<line x1="536" y1="109" x2="536" y2="160" stroke="#2088FF" stroke-width="1.5" opacity="0.6"/>
<line x1="536" y1="160" x2="220" y2="160" stroke="#2088FF" stroke-width="1.5" opacity="0.6"/>
<line x1="220" y1="160" x2="220" y2="300" stroke="#2088FF" stroke-width="1.5" marker-end="url(#arrow)" opacity="0.6"/>
<line x1="536" y1="160" x2="536" y2="300" stroke="#2088FF" stroke-width="1.5" marker-end="url(#arrow)" opacity="0.6"/>
<text x="335" y="156" text-anchor="middle" font-size="9" fill="#2088FF">docker pull then docker run --hostname</text>

<!-- VM1 -->
<rect x="60" y="300" width="310" height="110" rx="10" fill="none" stroke="#E95420" stroke-width="0.8" opacity="0.7"/>
<circle cx="105" cy="340" r="20" fill="none" stroke="#E95420" stroke-width="2.5"/>
<circle cx="105" cy="320" r="4" fill="#E95420"/>
<circle cx="122" cy="349" r="4" fill="#E95420"/>
<circle cx="88" cy="349" r="4" fill="#E95420"/>
<text x="105" y="376" text-anchor="middle" font-size="10" fill="#666">Ubuntu 24.04</text>
<rect x="148" y="315" width="200" height="76" rx="6" fill="none" stroke="#2496ED" stroke-width="1" opacity="0.8"/>
<rect x="148" y="315" width="200" height="22" rx="6" fill="#2496ED" opacity="0.15"/>
<text x="248" y="330" text-anchor="middle" font-size="10" font-weight="500" fill="#2496ED">Docker container</text>
<polygon points="185,358 197,365 197,379 185,386 173,379 173,365" fill="#339933" opacity="0.8"/>
<text x="185" y="376" text-anchor="middle" font-size="8" font-family="monospace" font-weight="700" fill="white">JS</text>
<text x="232" y="356" font-size="11" font-weight="500" fill="#333">--hostname app1</text>
<text x="232" y="371" font-size="10" fill="#666">port 3000</text>
<text x="232" y="384" font-size="10" font-family="monospace" fill="#339933">os.hostname() → app1</text>
<text x="185" y="420" text-anchor="middle" font-size="10" font-weight="500" fill="#333">vm-devops-server</text>
<text x="185" y="433" text-anchor="middle" font-size="9" fill="#666">20.208.25.215</text>

<!-- VM2 -->
<rect x="390" y="300" width="255" height="110" rx="10" fill="none" stroke="#E95420" stroke-width="0.8" opacity="0.7"/>
<circle cx="422" cy="340" r="20" fill="none" stroke="#E95420" stroke-width="2.5"/>
<circle cx="422" cy="320" r="4" fill="#E95420"/>
<circle cx="439" cy="349" r="4" fill="#E95420"/>
<circle cx="405" cy="349" r="4" fill="#E95420"/>
<text x="422" y="376" text-anchor="middle" font-size="10" fill="#666">Ubuntu 22.04</text>
<rect x="455" y="315" width="178" height="76" rx="6" fill="none" stroke="#2496ED" stroke-width="1" opacity="0.8"/>
<rect x="455" y="315" width="178" height="22" rx="6" fill="#2496ED" opacity="0.15"/>
<text x="544" y="330" text-anchor="middle" font-size="10" font-weight="500" fill="#2496ED">Docker container</text>
<polygon points="480,358 492,365 492,379 480,386 468,379 468,365" fill="#339933" opacity="0.8"/>
<text x="480" y="376" text-anchor="middle" font-size="8" font-family="monospace" font-weight="700" fill="white">JS</text>
<text x="516" y="356" font-size="11" font-weight="500" fill="#333">--hostname app2</text>
<text x="516" y="371" font-size="10" fill="#666">port 3000</text>
<text x="516" y="384" font-size="10" font-family="monospace" fill="#339933">os.hostname() → app2</text>
<text x="422" y="420" text-anchor="middle" font-size="10" font-weight="500" fill="#333">vm-devops-server2</text>
<text x="422" y="433" text-anchor="middle" font-size="9" fill="#666">20.208.37.137</text>

<!-- Load Balancer -->
<rect x="200" y="460" width="280" height="70" rx="10" fill="none" stroke="#0078D4" stroke-width="1.5"/>
<rect x="200" y="460" width="280" height="70" rx="10" fill="#0078D4" opacity="0.06"/>
<path d="M238 476 L256 476 L256 508 Q248 514 238 508 Z" fill="none" stroke="#0078D4" stroke-width="1.5"/>
<line x1="238" y1="489" x2="256" y2="489" stroke="#0078D4" stroke-width="1"/>
<line x1="247" y1="476" x2="247" y2="514" stroke="#0078D4" stroke-width="1"/>
<text x="340" y="484" text-anchor="middle" font-size="12" font-weight="500" fill="#333">Azure Load Balancer</text>
<text x="340" y="500" text-anchor="middle" font-size="10" fill="#666">lb-devops-app.switzerlandnorth.cloudapp.azure.com</text>
<text x="340" y="518" text-anchor="middle" font-size="10" fill="#0078D4">port 80 → round-robin → port 3000</text>

<line x1="280" y1="460" x2="220" y2="412" stroke="#0078D4" stroke-width="1.5" marker-end="url(#arrow)" opacity="0.7"/>
<line x1="400" y1="460" x2="450" y2="412" stroke="#0078D4" stroke-width="1.5" marker-end="url(#arrow)" opacity="0.7"/>
<text x="234" y="440" font-size="9" fill="#0078D4">10.0.0.4</text>
<text x="408" y="440" font-size="9" fill="#0078D4">10.0.0.5</text>

<!-- User -->
<circle cx="340" cy="568" r="8" fill="none" stroke="#666" stroke-width="1.5"/>
<path d="M326 584 Q340 576 354 584" fill="none" stroke="#666" stroke-width="1.5"/>
<text x="340" y="600" text-anchor="middle" font-size="10" fill="#666">Internet user</text>
<line x1="340" y1="558" x2="340" y2="532" stroke="#666" stroke-width="1.5" marker-end="url(#arrow)" opacity="0.6"/>
<text x="355" y="548" font-size="9" fill="#666">HTTP :80</text>
</svg>
